<svg width="14" height="14" viewBox="0 0 14 14" fill="none" xmlns="http://www.w3.org/2000/svg">
<g filter="url(#filter0_d_1_113)">
<path d="M8.09028 5.67685V5.33967C8.09028 5.2954 8.08265 5.25155 8.06782 5.21064C8.05299 5.16975 8.03125 5.13258 8.00385 5.10124C7.97643 5.06994 7.94389 5.04511 7.9081 5.02816C7.87228 5.01123 7.8339 5.0025 7.79514 5.0025H6.6145C6.22313 5.0025 5.84778 4.82489 5.57102 4.50872C5.29428 4.19256 5.1388 3.76377 5.13879 3.31664C5.13879 3.09525 5.17697 2.87602 5.25113 2.67148C5.32529 2.46694 5.43398 2.28109 5.57102 2.12454C5.70805 1.968 5.87073 1.84382 6.04977 1.7591C6.22882 1.67438 6.42072 1.63077 6.6145 1.63077H7.79506C7.83382 1.63079 7.87222 1.62207 7.90803 1.60514C7.94385 1.5882 7.97641 1.56336 8.00381 1.53205C8.03123 1.50075 8.05296 1.46357 8.06782 1.42266C8.08265 1.38174 8.09028 1.33789 8.09028 1.2936V0.956421H6.61458C6.34326 0.956421 6.07461 1.01747 5.82396 1.13608C5.5733 1.25469 5.34555 1.42855 5.15371 1.64772C4.96187 1.86689 4.80969 2.12706 4.70586 2.41343C4.60205 2.69978 4.54861 3.00669 4.54861 3.31664C4.54861 3.94259 4.76627 4.54293 5.15372 4.98556C5.54115 5.42818 6.06664 5.67685 6.61458 5.67685H8.09028Z" fill="url(#paint0_linear_1_113)"/>
<path d="M5.72908 3.31664C5.72908 3.58491 5.82236 3.84217 5.9884 4.03185C6.15445 4.22156 6.37965 4.32812 6.61446 4.32812H8.09029C8.24684 4.32812 8.39696 4.39917 8.50766 4.52563C8.61835 4.65209 8.68055 4.82362 8.68055 5.00247V5.67683H9.27084V5.0025C9.27084 4.64481 9.14646 4.30177 8.92507 4.04882C8.70366 3.7959 8.40338 3.65382 8.09029 3.65382H6.61451C6.53623 3.65382 6.46115 3.61828 6.40581 3.55507C6.35045 3.49182 6.31936 3.40607 6.31936 3.31664C6.31936 3.22721 6.35045 3.14145 6.40581 3.07822C6.46115 3.01498 6.53623 2.97946 6.61451 2.97946H8.09029C8.40338 2.97946 8.70366 2.83737 8.92507 2.58444C9.14646 2.33152 9.27084 1.98847 9.27084 1.63077V0.956421H8.68046V1.63077C8.68046 1.8096 8.61829 1.98111 8.50761 2.10756C8.39694 2.23402 8.24683 2.30507 8.09029 2.30511H6.61451C6.49822 2.3051 6.38308 2.33126 6.27567 2.38209C6.16824 2.43292 6.07062 2.50744 5.9884 2.60136C5.90618 2.69529 5.84096 2.80681 5.79647 2.92954C5.75197 3.05226 5.72907 3.1838 5.72908 3.31664Z" fill="url(#paint1_linear_1_113)"/>
</g>
<defs>
<filter id="filter0_d_1_113" x="0.548615" y="0.956421" width="12.7222" height="12.7205" filterUnits="userSpaceOnUse" color-interpolation-filters="sRGB">
<feFlood flood-opacity="0" result="BackgroundImageFix"/>
<feColorMatrix in="SourceAlpha" type="matrix" values="0 0 0 0 0 0 0 0 0 0 0 0 0 0 0 0 0 0 127 0" result="hardAlpha"/>
<feOffset dy="4"/>
<feGaussianBlur stdDeviation="2"/>
<feComposite in2="hardAlpha" operator="out"/>
<feColorMatrix type="matrix" values="0 0 0 0 0 0 0 0 0 0 0 0 0 0 0 0 0 0 0.25 0"/>
<feBlend mode="normal" in2="BackgroundImageFix" result="effect1_dropShadow_1_113"/>
<feBlend mode="normal" in="SourceGraphic" in2="effect1_dropShadow_1_113" result="shape"/>
</filter>
<linearGradient id="paint0_linear_1_113" x1="5.08341" y1="3.31664" x2="9.62738" y2="3.31664" gradientUnits="userSpaceOnUse">
<stop stop-color="#817696"/>
<stop offset="1" stop-color="#817698"/>
</linearGradient>
<linearGradient id="paint1_linear_1_113" x1="5.08093" y1="3.31663" x2="9.62855" y2="3.31663" gradientUnits="userSpaceOnUse">
<stop stop-color="#8575D2"/>
<stop offset="1" stop-color="#9083D5"/>
</linearGradient>
</defs>
</svg>
