<svg width="23" height="15" viewBox="0 0 23 15" fill="none" xmlns="http://www.w3.org/2000/svg">
<g filter="url(#filter0_d_1_305)">
<path d="M8.641 3.382C8.72967 3.382 8.80667 3.41467 8.872 3.48C8.942 3.54533 8.977 3.64333 8.977 3.774C8.977 3.90933 8.942 4.00733 8.872 4.068C8.80667 4.12867 8.72733 4.159 8.634 4.159H8.557L8.599 5.601C8.60367 5.727 8.56633 5.82733 8.487 5.902C8.41233 5.97667 8.30967 6.014 8.179 6.014C8.04367 6.014 7.93633 5.979 7.857 5.909C7.78233 5.839 7.74267 5.74333 7.738 5.622L7.696 4.145L5.736 4.117L5.603 5.741C5.589 5.94633 5.449 6.049 5.183 6.049C5.03833 6.049 4.92633 6.01867 4.847 5.958C4.77233 5.89267 4.73733 5.79933 4.742 5.678L4.868 4.103H4.798C4.69533 4.103 4.61367 4.068 4.553 3.998C4.49233 3.928 4.462 3.83233 4.462 3.711C4.462 3.58967 4.49467 3.49633 4.56 3.431C4.62533 3.36567 4.71167 3.333 4.819 3.333H4.931L5.092 1.31C5.10133 1.19333 5.14567 1.10233 5.225 1.037C5.309 0.971666 5.41633 0.939 5.547 0.939C5.687 0.939 5.792 0.981 5.862 1.065C5.932 1.14433 5.96233 1.247 5.953 1.373L5.792 3.347L7.675 3.368L7.612 1.345C7.60733 1.22833 7.64233 1.13267 7.717 1.058C7.79633 0.978666 7.90367 0.939 8.039 0.939C8.16967 0.939 8.27467 0.976333 8.354 1.051C8.43333 1.12567 8.473 1.21667 8.473 1.324L8.536 3.382H8.641ZM14.5169 3.69C14.5169 3.91867 14.5216 4.23833 14.5309 4.649C14.5402 5.069 14.5449 5.39567 14.5449 5.629C14.5449 5.75967 14.5076 5.86233 14.4329 5.937C14.3582 6.01167 14.2532 6.049 14.1179 6.049C13.9826 6.049 13.8752 6.01167 13.7959 5.937C13.7212 5.86233 13.6839 5.76667 13.6839 5.65C13.6792 5.20667 13.6769 4.56267 13.6769 3.718C13.6769 3.16267 13.6582 2.745 13.6209 2.465C13.5882 2.185 13.5416 2.045 13.4809 2.045C13.3922 2.045 13.2359 2.346 13.0119 2.948C12.9232 3.19067 12.8229 3.55233 12.7109 4.033C12.6596 4.243 12.5032 4.348 12.2419 4.348C12.1066 4.348 11.9992 4.32467 11.9199 4.278C11.8452 4.22667 11.7916 4.152 11.7589 4.054L11.6819 3.767C11.5699 3.35633 11.4882 3.081 11.4369 2.941C11.3622 2.745 11.2759 2.54667 11.1779 2.346C11.0799 2.14533 11.0122 2.045 10.9749 2.045C10.8769 2.045 10.8186 2.591 10.7999 3.683C10.7952 3.84167 10.7929 4.061 10.7929 4.341L10.7999 5.664C10.7999 5.77133 10.7602 5.85767 10.6809 5.923C10.6016 5.98367 10.4919 6.014 10.3519 6.014C10.2119 6.014 10.1069 5.979 10.0369 5.909C9.9669 5.83433 9.9319 5.71533 9.9319 5.552C9.9319 5.328 9.93657 5.01067 9.9459 4.6L9.9529 3.669C9.9529 2.731 10.0229 2.05433 10.1629 1.639C10.3076 1.219 10.5386 1.009 10.8559 1.009C11.1126 1.009 11.3296 1.12333 11.5069 1.352C11.6889 1.58067 11.8289 1.83967 11.9269 2.129C12.0249 2.41367 12.1252 2.76367 12.2279 3.179C12.3772 2.58167 12.5616 2.07067 12.7809 1.646C13.0002 1.22133 13.2896 1.009 13.6489 1.009C13.8729 1.009 14.0479 1.11167 14.1739 1.317C14.2999 1.52233 14.3862 1.81867 14.4329 2.206C14.4842 2.59333 14.5122 3.088 14.5169 3.69ZM17.2447 6C16.8994 6 16.5914 5.92767 16.3207 5.783C16.0547 5.63833 15.8494 5.44933 15.7047 5.216C15.56 4.978 15.4877 4.72133 15.4877 4.446C15.4877 4.30133 15.525 4.19633 15.5997 4.131C15.6744 4.061 15.7747 4.026 15.9007 4.026C16.19 4.026 16.3394 4.145 16.3487 4.383C16.358 4.65367 16.449 4.86367 16.6217 5.013C16.799 5.15767 17.0067 5.23 17.2447 5.23C17.4547 5.23 17.6367 5.18333 17.7907 5.09C17.9447 4.992 18.0217 4.84967 18.0217 4.663C18.0217 4.523 17.975 4.40633 17.8817 4.313C17.7884 4.21967 17.674 4.145 17.5387 4.089C17.4034 4.033 17.2284 3.97467 17.0137 3.914C16.7337 3.83467 16.4934 3.753 16.2927 3.669C16.0967 3.585 15.91 3.44733 15.7327 3.256C15.56 3.06 15.4737 2.808 15.4737 2.5C15.4737 2.22 15.5484 1.97033 15.6977 1.751C15.847 1.527 16.05 1.35433 16.3067 1.233C16.5634 1.107 16.8434 1.044 17.1467 1.044C17.464 1.044 17.751 1.11167 18.0077 1.247C18.269 1.37767 18.472 1.55267 18.6167 1.772C18.766 1.99133 18.8407 2.22467 18.8407 2.472C18.8407 2.61667 18.8034 2.71933 18.7287 2.78C18.6587 2.84067 18.5537 2.871 18.4137 2.871C18.283 2.871 18.1874 2.84067 18.1267 2.78C18.066 2.71933 18.0217 2.62367 17.9937 2.493C17.9657 2.30633 17.877 2.14533 17.7277 2.01C17.583 1.87467 17.3894 1.807 17.1467 1.807C16.9134 1.807 16.7174 1.87233 16.5587 2.003C16.4047 2.13367 16.3277 2.304 16.3277 2.514C16.3277 2.64 16.3674 2.74033 16.4467 2.815C16.526 2.88967 16.624 2.95033 16.7407 2.997C16.8574 3.039 17.0697 3.10667 17.3777 3.2C17.625 3.27467 17.8537 3.36333 18.0637 3.466C18.2737 3.564 18.4604 3.711 18.6237 3.907C18.7917 4.103 18.8757 4.35033 18.8757 4.649C18.8757 4.915 18.8034 5.15067 18.6587 5.356C18.514 5.56133 18.3157 5.72 18.0637 5.832C17.8164 5.944 17.5434 6 17.2447 6Z" fill="#45A2C3"/>
</g>
<defs>
<filter id="filter0_d_1_305" x="0.461998" y="0.939026" width="22.4137" height="13.11" filterUnits="userSpaceOnUse" color-interpolation-filters="sRGB">
<feFlood flood-opacity="0" result="BackgroundImageFix"/>
<feColorMatrix in="SourceAlpha" type="matrix" values="0 0 0 0 0 0 0 0 0 0 0 0 0 0 0 0 0 0 127 0" result="hardAlpha"/>
<feOffset dy="4"/>
<feGaussianBlur stdDeviation="2"/>
<feComposite in2="hardAlpha" operator="out"/>
<feColorMatrix type="matrix" values="0 0 0 0 0 0 0 0 0 0 0 0 0 0 0 0 0 0 0.25 0"/>
<feBlend mode="normal" in2="BackgroundImageFix" result="effect1_dropShadow_1_305"/>
<feBlend mode="normal" in="SourceGraphic" in2="effect1_dropShadow_1_305" result="shape"/>
</filter>
</defs>
</svg>
