<svg width="93" height="102" viewBox="0 0 93 102" fill="none" xmlns="http://www.w3.org/2000/svg">
<path fill-rule="evenodd" clip-rule="evenodd" d="M67.7479 -14.992C80.309 -16.7558 91.6341 -8.06916 101.557 -1.48371C110.549 4.48359 117.593 12.1697 121.95 20.9791C125.978 29.1253 125.355 37.9645 125.411 46.7603C125.466 55.5991 127.417 64.9387 122.275 72.6966C117.102 80.5038 106.515 84.3042 97.3858 89.0523C87.9153 93.9775 78.9112 100.319 67.7479 101.056C56.2906 101.812 45.7211 97.0355 35.237 93.1527C23.7736 88.9072 9.56152 86.3894 3.57021 77.287C-2.42241 68.1827 1.92841 56.8621 4.70094 46.7603C7.06536 38.1455 12.0465 30.4029 18.392 23.2837C24.243 16.7194 32.7993 12.7431 39.9974 7.16097C49.539 -0.238417 54.8303 -13.1779 67.7479 -14.992Z" fill="url(#paint0_linear_1_92)"/>
<defs>
<linearGradient id="paint0_linear_1_92" x1="63.191" y1="-15.2234" x2="63.191" y2="101.135" gradientUnits="userSpaceOnUse">
<stop stop-color="#C5DCFF"/>
<stop offset="0.96875" stop-color="#C5DCFF" stop-opacity="0.5"/>
<stop offset="1" stop-color="#C4C4C4" stop-opacity="0"/>
</linearGradient>
</defs>
</svg>
